<?xml version="1.0" encoding="utf-8"?>
<!-- Generator: Adobe Illustrator 15.0.0, SVG Export Plug-In . SVG Version: 6.00 Build 0)  -->
<!DOCTYPE svg PUBLIC "-//W3C//DTD SVG 1.1//EN" "http://www.w3.org/Graphics/SVG/1.1/DTD/svg11.dtd">
<svg version="1.1" id="Layer_1" xmlns="http://www.w3.org/2000/svg" xmlns:xlink="http://www.w3.org/1999/xlink" x="0px" y="0px"
	 width="60.5px" height="30.416px" viewBox="0 0 60.5 30.416" enable-background="new 0 0 60.5 30.416" xml:space="preserve">
<g>
	<path fill="#FFFFFF" d="M55.68,14.619c-0.035-3.485,2.843-5.156,2.971-5.241c-1.617-2.363-4.135-2.688-5.032-2.725
		c-2.141-0.218-4.18,1.262-5.267,1.262c-1.085,0-2.763-1.23-4.539-1.198c-2.337,0.034-4.49,1.358-5.692,3.45
		c-2.427,4.209-0.62,10.446,1.744,13.862c1.155,1.67,2.534,3.549,4.342,3.48c1.743-0.068,2.401-1.127,4.508-1.127
		c2.107,0,2.699,1.127,4.543,1.092c1.874-0.033,3.062-1.703,4.209-3.379c1.326-1.939,1.873-3.818,1.905-3.912
		C59.331,20.164,55.718,18.781,55.68,14.619z"/>
	<path fill="#FFFFFF" d="M52.216,4.393C53.175,3.229,53.824,1.61,53.648,0c-1.385,0.056-3.06,0.92-4.054,2.083
		c-0.89,1.032-1.668,2.675-1.46,4.257C49.679,6.46,51.254,5.555,52.216,4.393z"/>
</g>
<g>
	<path fill="#FFFFFF" d="M1.808,9.626C0.811,9.626,0,10.436,0,11.434v7.232c0,0.996,0.811,1.807,1.808,1.807
		s1.808-0.811,1.808-1.807v-7.232C3.615,10.436,2.805,9.626,1.808,9.626z"/>
	<path fill="#FFFFFF" d="M21.692,9.626c-0.997,0-1.808,0.81-1.808,1.808v7.232c0,0.996,0.811,1.807,1.808,1.807
		s1.808-0.811,1.808-1.807v-7.232C23.5,10.436,22.689,9.626,21.692,9.626z"/>
	<path fill="#FFFFFF" d="M4.52,24.088h1.808v4.52c0,0.998,0.81,1.809,1.808,1.809c0.997,0,1.808-0.811,1.808-1.809v-4.52h3.615v4.52
		c0,0.998,0.811,1.809,1.808,1.809c0.998,0,1.808-0.811,1.808-1.809v-4.52h1.808V10.531H4.52V24.088z"/>
	<path fill="#FFFFFF" d="M16.019,3.798l0.929-1.608c0.125-0.216,0.051-0.492-0.166-0.618c-0.216-0.125-0.492-0.051-0.618,0.167
		l-0.904,1.567c-1.039-0.578-2.234-0.91-3.509-0.91c-1.273,0-2.468,0.332-3.509,0.911L7.336,1.738
		c-0.126-0.216-0.4-0.29-0.619-0.166C6.502,1.697,6.428,1.973,6.552,2.19l0.93,1.608C5.688,5.114,4.52,7.231,4.52,9.626H18.98
		C18.98,7.231,17.812,5.114,16.019,3.798z M9.038,6.915c-0.499,0-0.903-0.404-0.903-0.904c0-0.5,0.404-0.904,0.903-0.904
		c0.5,0,0.904,0.404,0.904,0.904C9.942,6.511,9.538,6.915,9.038,6.915z M14.462,6.915c-0.5,0-0.904-0.404-0.904-0.904
		c0-0.5,0.404-0.904,0.904-0.904c0.499,0,0.903,0.404,0.903,0.904C15.365,6.511,14.961,6.915,14.462,6.915z"/>
</g>
</svg>
